# xmcd
#
# Track frame offsets:
#	150
#	16900
#	31405
#	52582
#	68280
#	86252
#	98480
#	113752
#	132217
#	148367
#	163787
#	181632
#	202525
#
# Disc length: 2727 seconds
#
# Revision: 0
# Processed by: cddbd v1.5.1PL0 Copyright (c) Steve Scherf et al.
# Submitted via: dBpowerAMP V4.0
#
DISCID=8f0aa50d
DTITLE=RIP*MASTERS - Don't Tread On Me
DYEAR=1996
DGENRE=Country
TTITLE0=Common Sense
TTITLE1=Alabama Moon
TTITLE2=Don't Tread on Me! 
TTITLE3=Walk on By
TTITLE4=Blue Night
TTITLE5=You Ain't Got No Right Doin' Wrong
TTITLE6=Gonna Find Me a Bluebird
TTITLE7=A Six-pack, a Pizza and a Cheap Motel
TTITLE8=Mrs. Jack Daniels
TTITLE9=Get Off the Fence
TTITLE10=Liquor Store Girl
TTITLE11=For All My Life
TTITLE12=Don't Tread on Me! (Slight Return)
EXTD=
EXTT0=
EXTT1=
EXTT2=
EXTT3=
EXTT4=
EXTT5=
EXTT6=
EXTT7=
EXTT8=
EXTT9=
EXTT10=
EXTT11=
EXTT12=
PLAYORDER=
